<svg width="72" height="93" viewBox="0 0 72 93" fill="none" xmlns="http://www.w3.org/2000/svg">
<g id="Group 590">
<circle id="Ellipse 110" cx="36" cy="35.75" r="35.75" fill="#DDFAEF"/>
<g id="Group 23">
<rect id="Rectangle 34" x="22.453" y="35.5407" width="34" height="48" rx="7" transform="rotate(2.5 22.453 35.5407)" fill="#D6CBF0" stroke="#7F56D9" stroke-width="2"/>
<rect id="Rectangle 23" x="0.607033" y="31.6586" width="38" height="52" rx="9" transform="rotate(-7.5 0.607033 31.6586)" fill="#FAFAFA" stroke="#7F56D9" stroke-width="2"/>
<path id="Rectangle 24" d="M2.77321 40.4511C2.19651 36.0706 5.28008 32.052 9.66056 31.4753L29.4895 28.8648C33.8699 28.2881 37.8885 31.3717 38.4652 35.7521L38.9221 39.2222L3.23006 43.9211L2.77321 40.4511Z" fill="#7F56D9" fill-opacity="0.29"/>
<rect id="Rectangle 25" x="45.1831" y="29.3203" width="1.5" height="5" rx="0.75" transform="rotate(82.5 45.1831 29.3203)" fill="#7F56D9"/>
<rect id="Rectangle 26" x="31.4849" y="21.0371" width="1.5" height="5" rx="0.75" transform="rotate(-7.5 31.4849 21.0371)" fill="#7F56D9"/>
<rect id="Rectangle 27" x="40.2737" y="22.4023" width="1.5" height="5" rx="0.75" transform="rotate(37.5 40.2737 22.4023)" fill="#7F56D9"/>
<rect id="Rectangle 28" x="6.96118" y="45.4473" width="29" height="2" rx="1" transform="rotate(-7.5 6.96118 45.4473)" fill="#7F56D9"/>
<rect id="Rectangle 30" x="8.26636" y="55.3613" width="29" height="2" rx="1" transform="rotate(-7.5 8.26636 55.3613)" fill="#7F56D9"/>
<rect id="Rectangle 32" x="9.57153" y="65.2754" width="29" height="2" rx="1" transform="rotate(-7.5 9.57153 65.2754)" fill="#7F56D9"/>
<rect id="Rectangle 29" x="7.48315" y="49.4121" width="10.5" height="2" rx="1" transform="rotate(-7.5 7.48315 49.4121)" fill="#7F56D9"/>
<rect id="Rectangle 31" x="8.78833" y="59.3281" width="10.5" height="2" rx="1" transform="rotate(-7.5 8.78833 59.3281)" fill="#7F56D9"/>
<rect id="Rectangle 33" x="10.0938" y="69.2422" width="10.5" height="2" rx="1" transform="rotate(-7.5 10.0938 69.2422)" fill="#7F56D9"/>
</g>
</g>
</svg>
